<svg xmlns="http://www.w3.org/2000/svg" width="1700" height="1180" viewBox="0 0 1700 1180" font-family="DejaVu Sans, sans-serif">
<defs><marker id="arrow" viewBox="0 0 10 10" refX="9" refY="5" markerWidth="8" markerHeight="8" orient="auto-start-reverse"><path d="M0 0 L10 5 L0 10 z" fill="#94a3b8"/></marker></defs>
<rect width="1700" height="1180" fill="#f8fafc"/>
<text x="40" y="52" font-size="30" font-weight="700" fill="#0f172a">Nijmegen Tijdmachine — Verhalen knowledge graph</text>
<text x="40" y="78" font-size="15" fill="#64748b">Ontology overview · classes &amp; object properties, with live instance counts · 3164 triples across 10 Turtle files</text>
<path d="M 175 139 L 175 211" fill="none" stroke="#94a3b8" stroke-width="2" marker-end="url(#arrow)"/>
<rect x="137" y="164" width="77" height="18" rx="4" fill="white" fill-opacity="0.92"/><text x="175" y="178" text-anchor="middle" font-size="12.5" fill="#475569" font-style="italic" font-family="DejaVu Sans, sans-serif">hasThread</text>
<path d="M 175 269 L 175 343" fill="none" stroke="#94a3b8" stroke-width="2" marker-end="url(#arrow)"/>
<rect x="133" y="295" width="84" height="18" rx="4" fill="white" fill-opacity="0.92"/><text x="175" y="309" text-anchor="middle" font-size="12.5" fill="#475569" font-style="italic" font-family="DejaVu Sans, sans-serif">hasSegment</text>
<path d="M 265 352 L 375 328" fill="none" stroke="#94a3b8" stroke-width="2" marker-end="url(#arrow)"/>
<rect x="285" y="329" width="69" height="18" rx="4" fill="white" fill-opacity="0.92"/><text x="320" y="343" text-anchor="middle" font-size="12.5" fill="#475569" font-style="italic" font-family="DejaVu Sans, sans-serif">hasBlock</text>
<path d="M 175 401 L 175 531" fill="none" stroke="#94a3b8" stroke-width="2" marker-end="url(#arrow)"/>
<rect x="140" y="455" width="69" height="18" rx="4" fill="white" fill-opacity="0.92"/><text x="175" y="469" text-anchor="middle" font-size="12.5" fill="#475569" font-style="italic" font-family="DejaVu Sans, sans-serif">mapState</text>
<path d="M 265 372 Q 529 537 792 372" fill="none" stroke="#94a3b8" stroke-width="2" marker-end="url(#arrow)"/>
<rect x="479" y="526" width="99" height="18" rx="4" fill="white" fill-opacity="0.92"/><text x="529" y="540" text-anchor="middle" font-size="12.5" fill="#475569" font-style="italic" font-family="DejaVu Sans, sans-serif">primaryEvent</text>
<path d="M 553 398 L 624 531" fill="none" stroke="#94a3b8" stroke-width="2" marker-end="url(#arrow)"/>
<rect x="547" y="454" width="84" height="18" rx="4" fill="white" fill-opacity="0.92"/><text x="589" y="468" text-anchor="middle" font-size="12.5" fill="#475569" font-style="italic" font-family="DejaVu Sans, sans-serif">references</text>
<path d="M 625 367 Q 772 480 948 540" fill="none" stroke="#94a3b8" stroke-width="2" marker-end="url(#arrow)"/>
<rect x="701" y="469" width="143" height="18" rx="4" fill="white" fill-opacity="0.92"/><text x="772" y="483" text-anchor="middle" font-size="12.5" fill="#475569" font-style="italic" font-family="DejaVu Sans, sans-serif">references · cites</text>
<path d="M 171 589 L 154 700" fill="none" stroke="#94a3b8" stroke-width="2" marker-end="url(#arrow)"/>
<rect x="132" y="634" width="62" height="18" rx="4" fill="white" fill-opacity="0.92"/><text x="163" y="648" text-anchor="middle" font-size="12.5" fill="#475569" font-style="italic" font-family="DejaVu Sans, sans-serif">overlay</text>
<path d="M 260 589 Q 429 678 617 710" fill="none" stroke="#94a3b8" stroke-width="2" marker-end="url(#arrow)"/>
<rect x="387" y="667" width="84" height="18" rx="4" fill="white" fill-opacity="0.92"/><text x="429" y="681" text-anchor="middle" font-size="12.5" fill="#475569" font-style="italic" font-family="DejaVu Sans, sans-serif">focusPlace</text>
<path d="M 215 589 L 373 703" fill="none" stroke="#94a3b8" stroke-width="2" marker-end="url(#arrow)"/>
<rect x="270" y="635" width="47" height="18" rx="4" fill="white" fill-opacity="0.92"/><text x="294" y="649" text-anchor="middle" font-size="12.5" fill="#475569" font-style="italic" font-family="DejaVu Sans, sans-serif">arrow</text>
<path d="M 196 589 L 390 853" fill="none" stroke="#94a3b8" stroke-width="2" marker-end="url(#arrow)"/>
<rect x="259" y="710" width="69" height="18" rx="4" fill="white" fill-opacity="0.92"/><text x="293" y="724" text-anchor="middle" font-size="12.5" fill="#475569" font-style="italic" font-family="DejaVu Sans, sans-serif">photoPin</text>
<path d="M 485 734 L 605 739" fill="none" stroke="#94a3b8" stroke-width="2" marker-end="url(#arrow)"/>
<rect x="470" y="726" width="151" height="18" rx="4" fill="white" fill-opacity="0.92"/><text x="545" y="740" text-anchor="middle" font-size="12.5" fill="#475569" font-style="italic" font-family="DejaVu Sans, sans-serif">arrowFrom · arrowTo</text>
<path d="M 472 853 L 640 780" fill="none" stroke="#94a3b8" stroke-width="2" marker-end="url(#arrow)"/>
<rect x="525" y="806" width="62" height="18" rx="4" fill="white" fill-opacity="0.92"/><text x="556" y="820" text-anchor="middle" font-size="12.5" fill="#475569" font-style="italic" font-family="DejaVu Sans, sans-serif">atPlace</text>
<path d="M 473 853 Q 763 891 935 654" fill="none" stroke="#94a3b8" stroke-width="2" marker-end="url(#arrow)"/>
<rect x="721" y="880" width="84" height="18" rx="4" fill="white" fill-opacity="0.92"/><text x="763" y="894" text-anchor="middle" font-size="12.5" fill="#475569" font-style="italic" font-family="DejaVu Sans, sans-serif">references</text>
<path d="M 868 401 Q 765 540 735 710" fill="none" stroke="#94a3b8" stroke-width="2" marker-end="url(#arrow)"/>
<rect x="723" y="529" width="84" height="18" rx="4" fill="white" fill-opacity="0.92"/><text x="765" y="543" text-anchor="middle" font-size="12.5" fill="#475569" font-style="italic" font-family="DejaVu Sans, sans-serif">occurredAt</text>
<path d="M 968 372 L 1110 372" fill="none" stroke="#94a3b8" stroke-width="2" marker-end="url(#arrow)"/>
<rect x="982" y="361" width="114" height="18" rx="4" fill="white" fill-opacity="0.92"/><text x="1039" y="375" text-anchor="middle" font-size="12.5" fill="#475569" font-style="italic" font-family="DejaVu Sans, sans-serif">hadParticipant</text>
<path d="M 860 343 C 848 285 912 285 900 343" fill="none" stroke="#94a3b8" stroke-width="2" marker-end="url(#arrow)"/><rect x="853" y="284" width="54" height="18" rx="4" fill="white" fill-opacity="0.92"/><text x="880" y="298" text-anchor="middle" font-size="12.5" fill="#475569" font-style="italic" font-family="DejaVu Sans, sans-serif">partOf</text>
<path d="M 728 568 L 935 588" fill="none" stroke="#94a3b8" stroke-width="2" marker-end="url(#arrow)"/>
<rect x="786" y="567" width="91" height="18" rx="4" fill="white" fill-opacity="0.92"/><text x="831" y="581" text-anchor="middle" font-size="12.5" fill="#475569" font-style="italic" font-family="DejaVu Sans, sans-serif">derivedFrom</text>
<path d="M 1013 540 Q 1005 433 903 401" fill="none" stroke="#94a3b8" stroke-width="2" marker-end="url(#arrow)"/>
<rect x="930" y="422" width="151" height="18" rx="4" fill="white" fill-opacity="0.92"/><text x="1005" y="436" text-anchor="middle" font-size="12.5" fill="#475569" font-style="italic" font-family="DejaVu Sans, sans-serif">depicts · documents</text>
<path d="M 1105 540 Q 1122 450 1203 408" fill="none" stroke="#94a3b8" stroke-width="2" marker-end="url(#arrow)"/>
<rect x="1080" y="439" width="84" height="18" rx="4" fill="white" fill-opacity="0.92"/><text x="1122" y="453" text-anchor="middle" font-size="12.5" fill="#475569" font-style="italic" font-family="DejaVu Sans, sans-serif">authoredBy</text>
<path d="M 899 872 L 881 401" fill="none" stroke="#94a3b8" stroke-width="2" marker-end="url(#arrow)"/>
<rect x="867" y="626" width="47" height="18" rx="4" fill="white" fill-opacity="0.92"/><text x="890" y="640" text-anchor="middle" font-size="12.5" fill="#475569" font-style="italic" font-family="DejaVu Sans, sans-serif">about</text>
<rect x="85" y="81" width="180" height="58" rx="10" fill="#dbeafe" stroke="#1d4ed8" stroke-width="2.5"/>
<text x="175" y="106" text-anchor="middle" font-size="17" font-weight="700" fill="#1d4ed8" font-family="DejaVu Sans, sans-serif">Story</text>
<text x="175" y="125" text-anchor="middle" font-size="13"  fill="#334155" font-family="DejaVu Sans, sans-serif">(chapter) · 5</text>
<rect x="85" y="211" width="180" height="58" rx="10" fill="#dbeafe" stroke="#1d4ed8" stroke-width="2.5"/>
<text x="175" y="236" text-anchor="middle" font-size="17" font-weight="700" fill="#1d4ed8" font-family="DejaVu Sans, sans-serif">Thread</text>
<text x="175" y="255" text-anchor="middle" font-size="13"  fill="#334155" font-family="DejaVu Sans, sans-serif">(verhaallijn) · 18</text>
<rect x="85" y="343" width="180" height="58" rx="10" fill="#dbeafe" stroke="#1d4ed8" stroke-width="2.5"/>
<text x="175" y="368" text-anchor="middle" font-size="17" font-weight="700" fill="#1d4ed8" font-family="DejaVu Sans, sans-serif">Segment</text>
<text x="175" y="387" text-anchor="middle" font-size="13"  fill="#334155" font-family="DejaVu Sans, sans-serif">(timeline step) · 63</text>
<rect x="375" y="202" width="250" height="196" rx="10" fill="#dbeafe" stroke="#1d4ed8" stroke-width="2.5"/>
<text x="500" y="251" text-anchor="middle" font-size="17" font-weight="700" fill="#1d4ed8" font-family="DejaVu Sans, sans-serif">Block  (63)</text>
<text x="500" y="270" text-anchor="middle" font-size="13"  fill="#334155" font-family="DejaVu Sans, sans-serif">— NarrativeBlock 63</text>
<text x="500" y="289" text-anchor="middle" font-size="13"  fill="#334155" font-family="DejaVu Sans, sans-serif">— ImageBlock 27</text>
<text x="500" y="308" text-anchor="middle" font-size="13"  fill="#334155" font-family="DejaVu Sans, sans-serif">— GalleryBlock 8</text>
<text x="500" y="327" text-anchor="middle" font-size="13"  fill="#334155" font-family="DejaVu Sans, sans-serif">— AudioBlock 1</text>
<text x="500" y="346" text-anchor="middle" font-size="13"  fill="#334155" font-family="DejaVu Sans, sans-serif">— QuoteBlock 1</text>
<text x="500" y="365" text-anchor="middle" font-size="13"  fill="#334155" font-family="DejaVu Sans, sans-serif">— MemorialWallBlock 1</text>
<rect x="85" y="531" width="180" height="58" rx="10" fill="#d1fae5" stroke="#047857" stroke-width="2.5"/>
<text x="175" y="556" text-anchor="middle" font-size="17" font-weight="700" fill="#047857" font-family="DejaVu Sans, sans-serif">MapState</text>
<text x="175" y="575" text-anchor="middle" font-size="13"  fill="#334155" font-family="DejaVu Sans, sans-serif">(scene) · 63</text>
<rect x="55" y="700" width="190" height="60" rx="10" fill="#d1fae5" stroke="#047857" stroke-width="2.5"/>
<text x="150" y="726" text-anchor="middle" font-size="17" font-weight="700" fill="#047857" font-family="DejaVu Sans, sans-serif">PolygonOverlay</text>
<text x="150" y="745" text-anchor="middle" font-size="13"  fill="#334155" font-family="DejaVu Sans, sans-serif">· 4</text>
<rect x="335" y="703" width="150" height="54" rx="10" fill="#d1fae5" stroke="#047857" stroke-width="2.5"/>
<text x="410" y="735" text-anchor="middle" font-size="17" font-weight="700" fill="#047857" font-family="DejaVu Sans, sans-serif">Arrow · 9</text>
<rect x="330" y="853" width="160" height="54" rx="10" fill="#d1fae5" stroke="#047857" stroke-width="2.5"/>
<text x="410" y="885" text-anchor="middle" font-size="17" font-weight="700" fill="#047857" font-family="DejaVu Sans, sans-serif">PhotoPin · 4</text>
<rect x="605" y="710" width="230" height="70" rx="10" fill="#fef3c7" stroke="#b45309" stroke-width="2.5"/>
<text x="720" y="741" text-anchor="middle" font-size="17" font-weight="700" fill="#b45309" font-family="DejaVu Sans, sans-serif">Place / Building / Bridge</text>
<text x="720" y="760" text-anchor="middle" font-size="13"  fill="#334155" font-family="DejaVu Sans, sans-serif">· 33</text>
<rect x="792" y="343" width="175" height="58" rx="10" fill="#fef3c7" stroke="#b45309" stroke-width="2.5"/>
<text x="880" y="368" text-anchor="middle" font-size="17" font-weight="700" fill="#b45309" font-family="DejaVu Sans, sans-serif">Event</text>
<text x="880" y="387" text-anchor="middle" font-size="13"  fill="#334155" font-family="DejaVu Sans, sans-serif">· 8</text>
<rect x="1110" y="336" width="240" height="72" rx="10" fill="#fef3c7" stroke="#b45309" stroke-width="2.5"/>
<text x="1230" y="368" text-anchor="middle" font-size="17" font-weight="700" fill="#b45309" font-family="DejaVu Sans, sans-serif">Person / MilitaryUnit</text>
<text x="1230" y="387" text-anchor="middle" font-size="13"  fill="#334155" font-family="DejaVu Sans, sans-serif">· 2</text>
<rect x="552" y="531" width="175" height="58" rx="10" fill="#ede9fe" stroke="#6d28d9" stroke-width="2.5"/>
<text x="640" y="556" text-anchor="middle" font-size="17" font-weight="700" fill="#6d28d9" font-family="DejaVu Sans, sans-serif">Quote</text>
<text x="640" y="575" text-anchor="middle" font-size="13"  fill="#334155" font-family="DejaVu Sans, sans-serif">(ContentUnit) · 1</text>
<rect x="935" y="540" width="250" height="120" rx="10" fill="#ede9fe" stroke="#6d28d9" stroke-width="2.5"/>
<text x="1060" y="578" text-anchor="middle" font-size="17" font-weight="700" fill="#6d28d9" font-family="DejaVu Sans, sans-serif">Source  (41)</text>
<text x="1060" y="597" text-anchor="middle" font-size="13"  fill="#334155" font-family="DejaVu Sans, sans-serif">— Photograph 39</text>
<text x="1060" y="616" text-anchor="middle" font-size="13"  fill="#334155" font-family="DejaVu Sans, sans-serif">— AudioRecording 1</text>
<text x="1060" y="635" text-anchor="middle" font-size="13"  fill="#334155" font-family="DejaVu Sans, sans-serif">— Diary 1</text>
<rect x="805" y="872" width="190" height="56" rx="10" fill="#fef3c7" stroke="#b45309" stroke-width="2.5"/>
<text x="900" y="896" text-anchor="middle" font-size="17" font-weight="700" fill="#b45309" font-family="DejaVu Sans, sans-serif">Stolperstein</text>
<text x="900" y="915" text-anchor="middle" font-size="13"  fill="#334155" font-family="DejaVu Sans, sans-serif">· 155</text>
<rect x="40" y="1060" width="430" height="92" rx="10" fill="white" stroke="#cbd5e1"/>
<text x="56" y="1086" font-size="15" font-weight="700" fill="#0f172a">Legend</text>
<rect x="56" y="1094" width="16" height="12" rx="3" fill="#dbeafe" stroke="#1d4ed8" stroke-width="2"/>
<text x="80" y="1104" font-size="12.5" fill="#334155">Narrative (Story → Thread → Segment → Block)</text>
<rect x="56" y="1110" width="16" height="12" rx="3" fill="#d1fae5" stroke="#047857" stroke-width="2"/>
<text x="80" y="1120" font-size="12.5" fill="#334155">Scene (MapState, Overlay, Arrow, PhotoPin)</text>
<rect x="56" y="1126" width="16" height="12" rx="3" fill="#fef3c7" stroke="#b45309" stroke-width="2"/>
<text x="80" y="1136" font-size="12.5" fill="#334155">Domain (Place, Event, Actor, Stolperstein)</text>
<rect x="56" y="1142" width="16" height="12" rx="3" fill="#ede9fe" stroke="#6d28d9" stroke-width="2"/>
<text x="80" y="1152" font-size="12.5" fill="#334155">Provenance (Source, Quote)</text>
<text x="1660" y="1150" text-anchor="end" font-size="12" fill="#94a3b8">generated by datacollect · backend/src/main/resources/graph/*.ttl</text>
</svg>